<?xml version="1.0" standalone="no"?>
<!DOCTYPE svg PUBLIC "-//W3C//DTD SVG 20010904//EN"
 "http://www.w3.org/TR/2001/REC-SVG-20010904/DTD/svg10.dtd">
<svg version="1.0" xmlns="http://www.w3.org/2000/svg"
 width="1024.000000pt" height="1024.000000pt" viewBox="0 0 1024.000000 1024.000000"
 preserveAspectRatio="xMidYMid meet">
<metadata>
Created by potrace 1.14, written by Peter Selinger 2001-2017
</metadata>
<g transform="translate(0.000000,1024.000000) scale(0.100000,-0.100000)"
fill="#000000" stroke="none">
<path d="M4760 8766 c0 -14 5 -28 10 -31 6 -3 10 -17 10 -31 0 -13 5 -24 10
-24 6 0 10 -13 10 -30 0 -16 5 -30 10 -30 6 0 10 -13 10 -29 0 -17 5 -33 10
-36 6 -3 10 -16 10 -27 0 -12 4 -35 9 -52 30 -99 61 -354 60 -489 0 -84 -30
-349 -49 -447 -6 -30 -14 -72 -17 -92 -3 -21 -9 -38 -14 -38 -5 0 -9 -16 -9
-35 0 -19 -4 -35 -10 -35 -5 0 -10 -13 -10 -30 0 -16 -4 -30 -10 -30 -5 0 -10
-13 -10 -30 0 -16 -4 -30 -10 -30 -5 0 -10 -11 -10 -24 0 -14 -4 -27 -9 -30
-4 -3 -11 -18 -14 -34 -5 -25 -50 -130 -78 -184 -5 -10 -9 -25 -9 -33 0 -8 -3
-15 -8 -15 -4 0 -13 -15 -21 -32 -8 -18 -17 -35 -20 -38 -3 -3 -24 -39 -45
-80 -21 -41 -47 -83 -58 -94 -10 -11 -18 -26 -18 -33 0 -7 -4 -13 -10 -13 -5
0 -10 -7 -10 -15 0 -8 -4 -15 -9 -15 -5 0 -14 -13 -21 -30 -7 -16 -15 -30 -19
-30 -4 0 -14 -12 -23 -27 -9 -16 -25 -37 -35 -48 -10 -11 -30 -36 -43 -55 -14
-19 -42 -53 -64 -75 -21 -22 -55 -60 -75 -85 -43 -53 -90 -100 -157 -155 -26
-22 -66 -58 -89 -80 -22 -22 -58 -53 -80 -70 -22 -16 -49 -37 -59 -47 -11 -10
-25 -18 -31 -18 -6 0 -17 -9 -25 -20 -8 -11 -20 -20 -27 -20 -7 0 -13 -4 -13
-10 0 -5 -7 -10 -15 -10 -8 0 -15 -4 -15 -10 0 -5 -7 -10 -15 -10 -8 0 -15 -4
-15 -9 0 -5 -14 -14 -31 -21 -17 -7 -36 -18 -42 -25 -25 -24 -239 -137 -342
-179 -38 -16 -74 -33 -79 -38 -6 -4 -20 -8 -33 -8 -13 0 -23 -4 -23 -10 0 -5
-11 -10 -24 -10 -14 0 -28 -4 -31 -10 -3 -5 -17 -10 -31 -10 -13 0 -24 -4 -24
-10 0 -5 -13 -10 -30 -10 -16 0 -30 -4 -30 -9 0 -5 -15 -11 -32 -14 -18 -3
-85 -17 -148 -32 -165 -37 -258 -47 -495 -52 -215 -5 -255 -1 -450 39 -55 11
-115 23 -132 25 -18 3 -33 9 -33 14 0 5 -11 9 -25 9 -14 0 -34 5 -45 10 -11 6
-29 15 -40 20 -11 6 -29 10 -40 10 -11 0 -20 5 -20 10 0 6 -11 10 -25 10 -14
0 -25 5 -25 10 0 6 -9 10 -19 10 -11 0 -23 5 -26 10 -11 17 -35 11 -35 -9 0
-11 -5 -21 -11 -23 -12 -4 -14 -772 -2 -791 5 -7 11 -46 15 -87 4 -41 11 -100
17 -130 6 -30 14 -77 19 -105 15 -77 29 -144 47 -215 10 -36 19 -80 22 -97 3
-18 9 -33 14 -33 5 0 9 -16 9 -35 0 -19 5 -35 10 -35 6 0 10 -13 10 -30 0 -16
5 -30 10 -30 6 0 10 -9 10 -20 0 -11 4 -28 9 -38 13 -26 27 -61 57 -142 14
-41 31 -79 35 -85 5 -5 9 -19 9 -32 0 -13 5 -23 10 -23 6 0 10 -9 10 -20 0
-11 5 -20 10 -20 6 0 10 -9 10 -19 0 -11 3 -21 8 -23 4 -1 31 -50 60 -108 59
-120 84 -164 95 -168 4 -2 7 -10 7 -18 0 -8 8 -24 18 -35 11 -10 25 -32 33
-47 8 -15 17 -31 22 -37 4 -5 24 -35 44 -65 20 -30 40 -56 45 -58 4 -2 8 -9 8
-16 0 -7 13 -27 30 -44 17 -18 30 -36 30 -40 0 -5 8 -17 18 -28 10 -10 31 -37
47 -59 17 -22 47 -57 67 -77 21 -20 38 -39 38 -42 0 -29 446 -456 476 -456 3
0 19 -13 34 -30 15 -16 31 -30 35 -30 6 0 70 -46 125 -90 14 -11 29 -20 33
-20 4 0 17 -8 28 -18 10 -11 32 -25 47 -33 15 -8 32 -17 37 -22 27 -21 91 -60
145 -89 33 -17 60 -35 60 -40 0 -4 6 -8 13 -8 7 0 56 -21 108 -48 110 -55 171
-82 187 -82 7 0 12 -4 12 -10 0 -5 9 -10 20 -10 11 0 20 -4 20 -10 0 -5 11
-10 24 -10 14 0 28 -4 31 -10 3 -5 17 -10 30 -10 13 0 25 -3 27 -8 2 -4 57
-25 123 -46 66 -21 128 -42 137 -47 10 -5 29 -9 42 -9 14 0 28 -4 31 -10 3 -5
24 -10 46 -10 21 0 39 -4 39 -10 0 -5 15 -10 34 -10 19 0 38 -5 41 -10 3 -6
25 -10 49 -10 23 0 46 -4 51 -9 6 -5 30 -11 55 -14 25 -3 81 -10 125 -16 218
-30 290 -34 535 -34 281 0 433 12 655 53 33 6 80 14 105 17 25 3 49 9 55 14 5
5 24 9 41 9 18 0 36 5 39 10 3 6 16 10 27 10 25 0 37 3 225 64 78 25 149 46
157 46 9 0 16 5 16 10 0 6 9 10 19 10 11 0 23 5 26 10 3 6 17 10 31 10 13 0
24 5 24 10 0 6 9 10 19 10 11 0 23 4 26 10 3 5 15 10 26 10 10 0 19 5 19 10 0
6 7 10 15 10 18 0 129 52 133 63 2 4 12 7 23 7 10 0 19 5 19 10 0 6 9 10 20
10 11 0 20 5 20 10 0 6 9 10 20 10 11 0 20 5 20 10 0 6 7 10 15 10 8 0 15 5
15 10 0 6 7 10 15 10 9 0 21 5 28 10 23 19 189 120 198 120 5 0 9 4 9 8 0 5
12 15 28 23 15 8 32 19 38 24 6 6 37 28 68 50 32 22 68 50 81 63 13 12 27 22
30 22 3 0 22 16 42 35 20 19 41 35 45 35 15 0 348 323 348 337 0 4 14 19 31
32 17 14 51 52 77 85 25 34 54 68 64 77 10 9 18 19 18 23 0 4 11 18 25 32 14
14 25 29 25 33 0 4 8 17 18 29 9 11 26 33 37 48 11 15 25 32 30 38 6 6 16 23
24 39 8 15 18 27 23 27 4 0 8 9 8 20 0 11 4 20 8 20 5 0 22 24 37 53 16 28 31
54 35 57 4 3 17 25 31 50 13 25 27 47 30 50 3 3 12 20 20 37 8 18 17 33 21 33
5 0 8 6 8 14 0 8 16 44 35 80 19 37 35 73 35 81 0 8 5 15 10 15 6 0 10 9 10
19 0 11 5 23 10 26 6 3 10 15 10 26 0 10 5 19 10 19 6 0 10 11 10 25 0 14 5
25 10 25 6 0 10 11 10 25 0 14 5 25 10 25 6 0 10 9 10 19 0 11 5 23 10 26 6 3
10 16 10 29 0 12 4 26 8 32 5 5 17 36 26 69 10 33 23 76 28 95 6 19 14 45 19
58 5 13 9 34 9 47 0 14 5 25 10 25 6 0 10 16 10 35 0 19 5 35 10 35 6 0 10 18
10 39 0 22 5 43 10 46 6 3 10 28 10 56 0 27 4 49 9 49 5 0 11 24 14 53 3 28
13 111 22 182 10 78 19 235 22 395 4 228 1 292 -17 460 -12 107 -24 215 -27
240 -3 25 -9 49 -14 54 -5 6 -9 29 -9 53 0 24 -4 43 -10 43 -5 0 -10 20 -10
45 0 25 -4 45 -10 45 -5 0 -10 15 -10 34 0 19 -4 38 -10 41 -5 3 -10 19 -10
35 0 16 -4 32 -10 35 -5 3 -10 17 -10 31 0 13 -4 32 -10 42 -5 9 -22 58 -37
107 -15 50 -31 92 -35 93 -4 2 -8 12 -8 23 0 11 -4 28 -10 39 -5 11 -14 29
-20 40 -5 11 -10 27 -10 35 0 8 -4 15 -10 15 -5 0 -10 7 -10 15 0 8 -4 23 -9
33 -28 52 -101 213 -101 222 0 5 -4 10 -10 10 -5 0 -10 9 -10 20 0 11 -4 20
-9 20 -5 0 -11 8 -14 18 -7 19 -41 78 -93 159 -19 29 -34 58 -34 63 0 6 -4 10
-10 10 -5 0 -10 7 -10 15 0 8 -4 15 -10 15 -5 0 -10 7 -10 15 0 8 -4 15 -10
15 -5 0 -10 6 -10 13 0 7 -9 19 -20 27 -11 8 -20 22 -20 32 0 10 -3 18 -7 18
-5 0 -19 17 -33 37 -14 20 -35 47 -47 59 -13 13 -23 28 -23 35 0 6 -12 23 -27
37 -16 15 -46 50 -67 77 -48 60 -402 415 -415 415 -5 0 -26 17 -48 38 -21 20
-56 50 -78 67 -22 16 -46 35 -53 42 -7 7 -17 13 -22 13 -5 0 -20 11 -34 25
-14 14 -30 25 -36 25 -5 0 -10 5 -10 10 0 6 -6 10 -12 10 -7 0 -24 9 -38 20
-40 32 -100 70 -110 70 -6 0 -10 5 -10 10 0 6 -6 10 -13 10 -7 0 -23 9 -35 20
-12 11 -28 20 -37 20 -8 0 -15 5 -15 10 0 6 -9 10 -20 10 -11 0 -20 4 -20 9 0
5 -53 35 -117 67 -65 33 -119 62 -121 67 -2 4 -12 7 -23 7 -10 0 -19 5 -19 10
0 6 -9 10 -19 10 -11 0 -36 9 -58 19 -67 34 -222 91 -245 91 -10 0 -18 4 -18
8 0 4 -21 13 -47 20 -27 8 -56 18 -65 23 -10 5 -29 9 -42 9 -14 0 -28 5 -31
10 -3 6 -19 10 -35 10 -16 0 -31 4 -34 9 -3 4 -22 11 -43 14 -21 3 -72 13
-113 22 -267 59 -428 75 -782 81 l-268 5 0 -25z"/>
</g>
</svg>
