<?xml version="1.0" standalone="no"?>
<!DOCTYPE svg PUBLIC "-//W3C//DTD SVG 20010904//EN"
 "http://www.w3.org/TR/2001/REC-SVG-20010904/DTD/svg10.dtd">
<svg version="1.0" xmlns="http://www.w3.org/2000/svg"
 width="377.000000pt" height="377.000000pt" viewBox="0 0 377.000000 377.000000"
 preserveAspectRatio="xMidYMid meet">
<metadata>
Created by potrace 1.14, written by Peter Selinger 2001-2017
</metadata>
<g transform="translate(0.000000,377.000000) scale(0.100000,-0.100000)"
fill="#000000" stroke="none">
<path d="M3716 3330 c3 -14 11 -32 16 -40 6 -10 7 -7 2 10 -3 14 -11 32 -16
40 -6 10 -7 7 -2 -10z"/>
<path d="M1874 3124 c1 -177 -10 -232 -69 -361 -112 -243 -328 -440 -590 -539
-99 -37 -207 -54 -333 -55 -141 0 -236 22 -352 81 l-80 40 -9 -23 c-41 -109
-50 -454 -17 -607 60 -275 177 -491 376 -690 193 -194 412 -313 683 -372 137
-30 409 -32 536 -4 417 90 767 359 955 732 96 190 139 378 139 604 0 175 -20
293 -74 447 -132 375 -430 680 -801 823 -74 29 -237 69 -306 76 l-58 6 0 -158z"/>
<path d="M6 3228 c-3 -13 -5 -34 -5 -48 1 -15 5 -7 10 19 9 47 6 68 -5 29z"/>
<path d="M3765 1590 c0 -382 1 -539 2 -347 2 191 2 503 0 695 -1 191 -2 34 -2
-348z"/>
<path d="M2995 933 c-70 -37 -105 -95 -105 -173 0 -169 199 -251 319 -131 119
119 33 322 -136 321 -26 -1 -61 -8 -78 -17z"/>
<path d="M2 580 c0 -19 6 -51 13 -70 17 -45 17 -31 0 45 -11 48 -13 53 -13 25z"/>
<path d="M3751 564 c0 -11 3 -14 6 -6 3 7 2 16 -1 19 -3 4 -6 -2 -5 -13z"/>
<path d="M3479 133 c-13 -16 -12 -17 4 -4 16 13 21 21 13 21 -2 0 -10 -8 -17
-17z"/>
<path d="M356 81 c11 -11 84 -42 84 -36 0 6 -76 45 -87 45 -4 0 -3 -4 3 -9z"/>
<path d="M3370 70 c-19 -11 -31 -19 -27 -20 11 0 67 29 67 35 0 7 -1 7 -40
-15z"/>
<path d="M3280 35 c-19 -7 -28 -14 -20 -14 8 0 29 6 45 14 39 17 21 18 -25 0z"/>
<path d="M1277 3 c304 -2 802 -2 1105 0 304 1 56 2 -552 2 -608 0 -856 -1
-553 -2z"/>
</g>
</svg>
